<?xml version="1.0" encoding="UTF-8"?>
<svg version="1.1" xmlns="http://www.w3.org/2000/svg" width="850" height="850">
<path d="M0 0 C280.5 0 561 0 850 0 C850 280.5 850 561 850 850 C569.5 850 289 850 0 850 C0 569.5 0 289 0 0 Z " fill="#000000" transform="translate(0,0)"/>
<path d="M0 0 C0.86176847 -0.00551949 1.72353695 -0.01103897 2.61141962 -0.01672572 C3.55538636 -0.01261508 4.4993531 -0.00850444 5.4719249 -0.00426924 C6.98555767 -0.00952835 6.98555767 -0.00952835 8.52976888 -0.01489371 C11.93844939 -0.0242574 15.34696089 -0.01927159 18.75564873 -0.01442587 C21.21320724 -0.01815962 23.67076456 -0.02276004 26.12831998 -0.02815652 C31.48568126 -0.03786684 36.84299272 -0.04129693 42.20035851 -0.03924429 C50.16691249 -0.03619939 58.13342633 -0.04450691 66.09997251 -0.05499355 C81.15466556 -0.07435633 96.20934501 -0.07996261 111.26404904 -0.08110766 C122.88766655 -0.08202598 134.51127872 -0.08613865 146.13489449 -0.09250891 C149.47810093 -0.09430394 152.82130738 -0.09608356 156.16451383 -0.09785867 C157.41113114 -0.09852181 157.41113114 -0.09852181 158.68293265 -0.09919835 C182.0661027 -0.11151026 205.44927088 -0.11939912 228.83244431 -0.1185118 C230.15539832 -0.11846506 230.15539832 -0.11846506 231.50507867 -0.11841738 C235.97549096 -0.11825116 240.44590325 -0.11805308 244.91631554 -0.11784796 C246.24812879 -0.11778813 246.24812879 -0.11778813 247.60684735 -0.11772708 C249.40234842 -0.11764621 251.19784949 -0.11756261 252.99335056 -0.1174763 C280.93457402 -0.11625052 308.87574897 -0.13126749 336.81695855 -0.15862143 C368.19232756 -0.18932453 399.56766468 -0.20655501 430.94304967 -0.20469499 C434.28688482 -0.20454572 437.63071998 -0.20444831 440.97455513 -0.20438635 C441.79792228 -0.20436304 442.62128943 -0.20433974 443.4696071 -0.20431572 C456.73507959 -0.20425411 470.00051005 -0.21704031 483.26597004 -0.23425088 C496.59159254 -0.25118227 509.91715338 -0.2532008 523.24278067 -0.24003224 C531.16449364 -0.23262649 539.08601959 -0.23634929 547.00771285 -0.25591692 C552.91515404 -0.26927911 558.82244779 -0.26185035 564.7298875 -0.24617048 C567.12555317 -0.24307918 569.5212389 -0.24681218 571.91688095 -0.25789063 C575.16274956 -0.27191205 578.40763973 -0.26150328 581.65347397 -0.24477828 C582.59275838 -0.25471464 583.5320428 -0.26465099 584.49979037 -0.27488846 C591.29526919 -0.20039618 594.61757648 1.27293091 599.53619683 6.04596841 C602.34026318 11.41646838 601.62816978 20.01481517 599.96197808 25.75690591 C598.41371074 28.77162159 597.15543903 30.09382974 593.93854058 31.19049966 C592.82479058 31.22143716 592.82479058 31.22143716 591.68854058 31.25299966 C591.68854058 31.91299966 591.68854058 32.57299966 591.68854058 33.25299966 C580.30354058 33.74799966 580.30354058 33.74799966 568.68854058 34.25299966 C565.81030817 40.70235928 565.81030817 40.70235928 565.3210479 47.02335489 C565.31547875 48.12537241 565.3099096 49.22738992 565.30417168 50.36280191 C565.31799386 52.14608896 565.31799386 52.14608896 565.33209527 53.96540201 C565.33005089 55.23278207 565.32800652 56.50016214 565.3259002 57.80594766 C565.32078995 61.26428381 565.33425022 64.72231969 565.3514272 68.18060768 C565.36650966 71.80227502 565.36529014 75.42393923 565.36609185 79.04563272 C565.36977706 85.11985251 565.38471256 91.19395879 565.40729058 97.26813638 C565.43624335 105.07339455 565.44652222 112.87856178 565.45097268 120.68386781 C565.45494579 127.39213828 565.46744203 134.10038887 565.48131955 140.80864513 C565.48542269 142.96768178 565.48834601 145.12671773 565.49111474 147.28575647 C565.49689943 151.29619539 565.51156573 155.30655273 565.52740777 159.31696451 C565.52852562 160.51796793 565.52964348 161.71897134 565.53079522 162.9563688 C565.53936043 164.58401666 565.53936043 164.58401666 565.54809868 166.24454629 C565.55107335 167.19319747 565.55404801 168.14184865 565.55711281 169.11924684 C565.45108937 171.23631433 565.45108937 171.23631433 566.68854058 172.25299966 C568.31354438 172.36204646 569.94281686 172.40882266 571.57135308 172.42878091 C572.5742437 172.45262857 573.57713433 172.47647623 574.61041558 172.50104654 C576.72219845 172.54353973 578.83423508 172.57504481 580.94635308 172.59479654 C588.44199356 172.80035301 592.664741 174.03396 598.56354058 178.75299966 C601.88818688 183.1858614 601.22675904 190.0300064 600.68854058 195.25299966 C598.35283378 200.19391789 595.46486838 202.68308977 590.68854058 205.25299966 C587.34585403 205.82279717 584.05630667 205.78841368 580.67188466 205.75357091 C579.66187723 205.75908508 578.6518698 205.76459925 577.61125609 205.77028051 C574.21131081 205.78392542 570.81209029 205.76895102 567.41215813 205.75420511 C564.95628377 205.75809616 562.50041165 205.76373502 560.04454488 205.77097601 C554.69702885 205.7826826 549.34972931 205.78191054 544.00222886 205.77019632 C536.05046743 205.75282487 528.09883646 205.75830885 520.14706832 205.76836323 C505.94639164 205.78556586 491.7457921 205.78000771 477.545117 205.76500604 C465.11862985 205.75196292 452.69216947 205.74675663 440.26567566 205.7493242 C439.44193739 205.74948462 438.61819912 205.74964503 437.76949908 205.74981031 C434.42582951 205.75047388 431.08215996 205.75117629 427.73849042 205.75193565 C396.36264529 205.75896214 364.98684732 205.74345994 333.61101419 205.71731219 C305.72318591 205.69419442 277.83540948 205.68880949 249.94757378 205.69904459 C242.80619063 205.70164651 235.66480748 205.70423149 228.52342427 205.70664251 C227.20472348 205.70708868 227.20472348 205.70708868 225.85938226 205.70754386 C202.56944258 205.71515496 179.27950716 205.70875004 155.98956937 205.69794649 C153.48422453 205.69679866 150.97887968 205.69565548 148.47353484 205.69451966 C146.81149412 205.69376442 145.14945341 205.69299877 143.4874127 205.69222266 C131.06672847 205.68655923 118.64605766 205.6878977 106.22537339 205.69245088 C92.10620882 205.69755307 77.98709452 205.69173067 63.8679425 205.67155658 C55.96159853 205.66055092 48.0553533 205.65779489 40.14900627 205.66684512 C34.25485123 205.67266065 28.36079092 205.66287296 22.4666524 205.64684547 C20.07510631 205.64278186 17.68354526 205.64383258 15.29200464 205.65036433 C12.05425381 205.65845404 8.81706947 205.64827592 5.57935536 205.6333164 C4.63961997 205.64005405 3.69988459 205.6467917 2.73167238 205.65373352 C-2.0983548 205.61024346 -5.41996391 205.44059336 -9.31145942 202.25299966 C-13.42249724 197.03087054 -13.94118826 192.65425959 -13.69427192 186.06159341 C-12.99594647 180.93816485 -10.66983544 178.44405546 -6.90130317 175.13971841 C-2.26636789 172.12204954 3.15281791 172.61511212 8.50104058 172.56549966 C10.5909617 172.52362511 12.68081669 172.47825048 14.77057183 172.42878091 C15.69072075 172.41758218 16.61086968 172.40638345 17.55890191 172.39484537 C19.67218533 172.48887172 19.67218533 172.48887172 20.68854058 171.25299966 C20.78907916 169.56653758 20.81930388 167.87584871 20.82225335 166.18639505 C20.82651833 165.08854684 20.83078331 163.99069864 20.83517754 162.8595823 C20.83472435 161.64451501 20.83427117 160.42944772 20.83380425 159.17756021 C20.83716286 157.90612161 20.84052147 156.63468301 20.84398186 155.32471597 C20.85284335 151.82667951 20.85516092 148.32866748 20.85579765 144.83062088 C20.85674534 141.91316974 20.86042216 138.99572433 20.86396974 136.07827538 C20.87212311 129.19486348 20.87455324 122.31146467 20.87384331 115.42804849 C20.87324285 108.32363381 20.88378623 101.21929514 20.89958698 94.11489969 C20.91265904 88.0205963 20.91802732 81.92631775 20.9173879 75.83200043 C20.91713274 72.18998 20.9199938 68.54802702 20.93056595 64.90602052 C20.9420376 60.84283505 20.93750215 56.77981986 20.9314605 52.71662271 C20.93708001 51.50762811 20.94269951 50.29863351 20.94848931 49.05300272 C20.94429482 47.94669504 20.94010033 46.84038736 20.93577874 45.70055521 C20.9363235 44.73950215 20.93686827 43.77844909 20.93742955 42.78827322 C20.67547437 40.11990253 19.90166508 38.60585178 18.68854058 36.25299966 C18.68854058 34.93299966 18.68854058 33.61299966 18.68854058 32.25299966 C18.01798638 32.26871011 17.34743218 32.28442056 16.65655816 32.30060709 C13.60480548 32.36314625 10.5531879 32.4020503 7.50104058 32.44049966 C5.91839409 32.47820474 5.91839409 32.47820474 4.30377495 32.51667154 C2.77140191 32.53117349 2.77140191 32.53117349 1.20807183 32.54596841 C0.27068169 32.56167886 -0.66670845 32.57738931 -1.63250434 32.59357584 C-6.27741343 32.00306748 -8.74092711 29.96231011 -11.62395942 26.37799966 C-14.38987684 21.05020791 -14.16655718 15.0632793 -13.31145942 9.25299966 C-11.79238263 5.68046729 -9.78348759 3.1505495 -6.40905064 1.09303089 C-4.1083029 0.17164071 -2.47088429 0.00194206 0 0 Z " fill="#81C197" transform="translate(138.3114594221115,469.74700033664703)"/>
<path d="M0 0 C0.639375 -0.01546875 1.27875 -0.0309375 1.9375 -0.046875 C5.35222237 1.27244955 7.34328364 3.5878433 9 6.75 C9.57523294 9.9084746 9.47819657 12.9283308 9.3125 16.125 C9.27866211 17.37216797 9.27866211 17.37216797 9.24414062 18.64453125 C9.18563654 20.68047353 9.09596795 22.71547945 9 24.75 C9.90621094 25.02328125 10.81242188 25.2965625 11.74609375 25.578125 C18.63272928 28.05830586 23.7252015 32.92072932 28 38.75 C28.33 39.74 28.66 40.73 29 41.75 C30.134375 41.894375 31.26875 42.03875 32.4375 42.1875 C36 42.75 36 42.75 37 43.75 C37.1875 46.1875 37.1875 46.1875 37 48.75 C36.01 49.74 36.01 49.74 35 50.75 C33.35 50.75 31.7 50.75 30 50.75 C30 61.64 30 72.53 30 83.75 C32.64 84.08 35.28 84.41 38 84.75 C73.13316258 94.04105776 104.16696068 121.45660613 122.26733398 152.18725586 C125.55280821 157.88560814 128.62259522 163.60993095 131 169.75 C131.70769531 171.544375 131.70769531 171.544375 132.4296875 173.375 C135.37252996 181.09765371 137.68400795 188.84545026 139.375 196.9375 C139.54257812 197.70747314 139.71015625 198.47744629 139.8828125 199.27075195 C141.32394077 206.69613432 141 212.82066253 141 220.75 C48.27 220.75 -44.46 220.75 -140 220.75 C-140 201.09071445 -140 201.09071445 -138.3125 194.625 C-138.13243408 193.88403076 -137.95236816 193.14306152 -137.7668457 192.37963867 C-130.8750538 164.86251823 -117.67024245 142.1264567 -98 121.75 C-97.46141357 121.18732422 -96.92282715 120.62464844 -96.36791992 120.04492188 C-92.3581737 115.93328543 -88.16662147 112.30426473 -83.5625 108.875 C-82.87583252 108.36251709 -82.18916504 107.85003418 -81.48168945 107.32202148 C-71.13565682 99.76114225 -59.83417766 93.64982427 -48 88.75 C-46.89398438 88.28464844 -45.78796875 87.81929688 -44.6484375 87.33984375 C-38.89905002 85.01023867 -35.34919681 83.75 -29 83.75 C-29 72.86 -29 61.97 -29 50.75 C-30.65 50.75 -32.3 50.75 -34 50.75 C-36 48.75 -36 48.75 -36.25 46.25 C-36 43.75 -36 43.75 -34 41.75 C-30.375 41.625 -30.375 41.625 -27 41.75 C-26.95875 41.069375 -26.9175 40.38875 -26.875 39.6875 C-25.05059963 33.56272733 -20.68049004 29.90437578 -15.25 26.8125 C-11.35048232 24.75 -11.35048232 24.75 -9 24.75 C-9.08701172 22.90535156 -9.08701172 22.90535156 -9.17578125 21.0234375 C-9.22270005 19.39066312 -9.26819794 17.75784748 -9.3125 16.125 C-9.3753418 14.91263672 -9.3753418 14.91263672 -9.43945312 13.67578125 C-9.52490525 9.4715366 -9.36699666 6.60378843 -6.73046875 3.2109375 C-3.08504432 -0.07463817 -3.08504432 -0.07463817 0 0 Z " fill="#81C296" transform="translate(432,179.25)"/>
<path d="M0 0 C1.25207727 -0.01228109 2.50415454 -0.02456217 3.79417354 -0.03721541 C5.18098173 -0.03064013 6.56778815 -0.02368033 7.9545927 -0.01637745 C9.42989364 -0.02313457 10.90518749 -0.03162511 12.3804695 -0.04170066 C16.43559059 -0.06424752 20.49037049 -0.06176123 24.54553473 -0.05513132 C28.91855597 -0.05226025 33.29148119 -0.0723008 37.66446209 -0.08928394 C46.23241166 -0.11866351 54.80024351 -0.12593284 63.36823825 -0.12470844 C70.33221573 -0.12387654 77.29615593 -0.12973052 84.26012516 -0.14033413 C106.15257174 -0.1730228 128.04490361 -0.18199208 149.93737104 -0.17324439 C167.21032555 -0.16726294 184.48299619 -0.19765444 201.75587992 -0.24486711 C219.48825478 -0.29295792 237.22049293 -0.31504353 254.95293444 -0.30955631 C264.90971051 -0.30697876 274.86621471 -0.31498624 284.82293415 -0.35062695 C293.30022956 -0.38073257 301.77711163 -0.38652439 310.2544289 -0.36081793 C314.57967924 -0.34838681 318.90415249 -0.3472202 323.22933865 -0.37652683 C327.19056528 -0.40307656 331.15038335 -0.39719892 335.1115615 -0.36569688 C336.5429075 -0.35996955 337.97436028 -0.36601564 339.4055898 -0.3851529 C351.40973869 -0.53479315 351.40973869 -0.53479315 356.66105461 3.94103813 C361.3399283 8.7662541 361.15894807 12.64643925 361.09343243 19.23440075 C360.70103657 23.87130386 359.77767961 25.92666074 356.81608868 29.5117445 C352.59666895 32.04492055 349.47769016 32.8867271 344.58162975 32.88647461 C342.72480265 32.89728442 342.72480265 32.89728442 340.83046389 32.90831262 C339.46487154 32.90113624 338.09928065 32.89367736 336.73369122 32.8859663 C335.27673156 32.88870762 333.81977388 32.89276032 332.3628211 32.89800996 C328.36312759 32.9085952 324.36365762 32.90046889 320.36397386 32.88925946 C316.04898595 32.88041822 311.73402733 32.88886075 307.41903973 32.89512157 C298.96753033 32.90461205 290.51610628 32.89800753 282.06460321 32.88585863 C272.22442209 32.87224026 262.38426131 32.87387635 252.54407316 32.87599196 C234.98775481 32.87918222 217.43147703 32.86751206 199.87517071 32.84792614 C182.83577012 32.82892184 165.79641707 32.82183855 148.75700665 32.82741833 C130.20640715 32.83347498 111.65582857 32.83330112 93.10523081 32.82193249 C91.12747701 32.82072519 89.14972321 32.81951921 87.17196941 32.81831455 C85.71229433 32.81740924 85.71229433 32.81740924 84.22313085 32.81648565 C77.36249757 32.81260492 70.50187206 32.81300072 63.64123821 32.8149004 C55.28150149 32.81702167 46.92180643 32.81180341 38.56208146 32.79728685 C34.2960666 32.79003908 30.03011244 32.7859691 25.76409245 32.7905302 C21.85957742 32.79460328 17.95518778 32.78945065 14.05069178 32.77690413 C12.63758688 32.77397365 11.22447018 32.77441288 9.81136829 32.77854721 C7.89109712 32.78365562 5.97080425 32.77526723 4.0505476 32.76622009 C2.98374815 32.76535332 1.91694869 32.76448654 0.81782198 32.76359349 C-5.48977184 32.23437887 -9.07748011 30.30258091 -13.18391132 25.5117445 C-16.06143127 20.8030755 -15.81309868 15.86372093 -15.18391132 10.5117445 C-11.89154778 3.80507802 -7.56125381 0.01591312 0 0 Z " fill="#81C297" transform="translate(259.18391132354736,418.48825550079346)"/>
<path d="M0 0 C14.52 0 29.04 0 44 0 C44 46.86 44 93.72 44 142 C28.82 142 13.64 142 -2 142 C-2.04523474 125.10969618 -2.08204021 108.21944447 -2.10362434 91.32909679 C-2.11391485 83.48573314 -2.12793237 75.64240994 -2.15087891 67.79907227 C-2.17088121 60.95881141 -2.1837326 54.11857986 -2.18817699 47.27829057 C-2.19077284 43.66005561 -2.19682725 40.04190448 -2.21146011 36.42369652 C-2.22770426 32.3738173 -2.22797532 28.32408166 -2.22705078 24.27416992 C-2.23424133 23.08877121 -2.24143188 21.9033725 -2.24884033 20.68205261 C-2.246091 19.56467712 -2.24334167 18.44730164 -2.24050903 17.29606628 C-2.24235262 16.34016696 -2.24419621 15.38426764 -2.24609566 14.39940166 C-1.89533584 9.55423888 -0.86899731 4.77948518 0 0 Z " fill="#030604" transform="translate(458,502)"/>
<path d="M0 0 C14.19 0 28.38 0 43 0 C43 46.53 43 93.06 43 141 C28.15 141 13.3 141 -2 141 C-2.04519025 123.7971165 -2.08201443 106.59428385 -2.10362434 89.39135742 C-2.113926 81.40329866 -2.12796506 73.41527946 -2.15087891 65.42724609 C-2.17084683 58.46286078 -2.18372451 51.49850414 -2.18817699 44.534091 C-2.19077862 40.84832395 -2.19687033 37.1626389 -2.21146011 33.47689819 C-2.22763555 29.35695802 -2.2279775 25.23715935 -2.22705078 21.1171875 C-2.23424133 19.90230148 -2.24143188 18.68741547 -2.24884033 17.43571472 C-2.246091 16.30563492 -2.24334167 15.17555511 -2.24050903 14.01123047 C-2.24235262 13.03781708 -2.24419621 12.06440369 -2.24609566 11.06149292 C-2 8 -2 8 0 0 Z " fill="#000100" transform="translate(364,503)"/>
<path d="M0 0 C4.82380802 -0.0246519 9.64757967 -0.04283693 14.47143555 -0.05493164 C16.11369464 -0.05997174 17.75594923 -0.06680378 19.39819336 -0.07543945 C21.75375479 -0.08751926 24.10925709 -0.09323139 26.46484375 -0.09765625 C27.20339096 -0.10281754 27.94193817 -0.10797882 28.7028656 -0.11329651 C30.46898088 -0.1134925 32.23497146 -0.06194719 34 0 C37.4993851 3.4993851 36.11879038 13.77859363 36.12442017 18.37225342 C36.11902725 20.18055634 36.11902725 20.18055634 36.11352539 22.02539062 C36.11367142 23.31403015 36.11381744 24.60266968 36.1139679 25.93035889 C36.11425331 29.44218401 36.10839809 32.95397457 36.10139394 36.4657917 C36.09511766 40.14398139 36.09455323 43.82217199 36.09336853 47.50036621 C36.09026778 54.45580336 36.08207139 61.41122468 36.07201904 68.36665487 C36.06081881 76.28929931 36.05533762 84.21194453 36.05032361 92.13459492 C36.03988767 108.42307399 36.02155788 124.71153127 36 141 C23.79 141 11.58 141 -1 141 C-1.02259512 123.79711848 -1.04100724 106.59424967 -1.05181217 89.39135742 C-1.05696299 81.4033149 -1.06398253 73.41528227 -1.07543945 65.42724609 C-1.08542341 58.46286099 -1.09186226 51.49848306 -1.09408849 44.534091 C-1.0953893 40.84835103 -1.09843518 37.16263157 -1.10573006 33.47689819 C-1.11381772 29.35698548 -1.11398875 25.23710814 -1.11352539 21.1171875 C-1.11712067 19.90230148 -1.12071594 18.68741547 -1.12442017 17.43571472 C-1.11723101 11.52567859 -0.90561007 5.84291329 0 0 Z " fill="#010302" transform="translate(550,502)"/>
<path d="M0 0 C1.29349365 0.00523682 2.5869873 0.01047363 3.91967773 0.01586914 C4.9496714 0.01799156 4.9496714 0.01799156 6.00047302 0.02015686 C8.20144949 0.0257706 10.40232557 0.03832532 12.60327148 0.05102539 C14.09220231 0.05603863 15.58113473 0.06060184 17.07006836 0.06469727 C20.72700223 0.07574446 24.38387707 0.09301826 28.04077148 0.11352539 C28.26863607 2.16430664 28.49650065 4.21508789 28.72436523 6.26586914 C28.85963763 8.12492768 28.85963763 8.12492768 30.04077148 9.11352539 C30.13699185 10.82178227 30.16264777 12.53404653 30.161026 14.24501038 C30.16240067 15.35705338 30.16377533 16.46909637 30.16519165 17.61483765 C30.15979874 19.46089096 30.15979874 19.46089096 30.15429688 21.34423828 C30.1544429 22.63185562 30.15458893 23.91947296 30.15473938 25.24610901 C30.15502734 28.78727299 30.14913085 32.32840338 30.14216542 35.86955953 C30.13593165 39.56647527 30.13532807 43.2633917 30.13414001 46.96031189 C30.13102677 53.96556438 30.12281347 60.97080134 30.11279052 67.97604698 C30.10162918 75.94931415 30.09611889 83.92258204 30.09109509 91.89585507 C30.08063085 108.30175571 30.06228545 124.70763495 30.04077148 141.11352539 C18.16077148 141.11352539 6.28077148 141.11352539 -5.95922852 141.11352539 C-5.98177523 124.05051645 -6.00020751 106.98752015 -6.01104069 89.92450047 C-6.01620372 82.00239594 -6.02324656 74.0803013 -6.03466797 66.15820312 C-6.04461458 59.25577902 -6.05108189 52.35336208 -6.05331701 45.45093101 C-6.05462416 41.79391878 -6.05771025 38.13692703 -6.06495857 34.47992134 C-6.07297199 30.40408533 -6.07321967 26.32828526 -6.07275391 22.25244141 C-6.07634918 21.03108994 -6.07994446 19.80973846 -6.08364868 18.55137634 C-6.08227402 17.4477475 -6.08089935 16.34411865 -6.07948303 15.20704651 C-6.08040483 14.24192925 -6.08132662 13.276812 -6.08227634 12.28244877 C-5.95922852 10.11352539 -5.95922852 10.11352539 -4.95922852 9.11352539 C-4.75318767 7.78570661 -4.59293262 6.45056644 -4.45922852 5.11352539 C-3.96307961 0.1520363 -3.96307961 0.1520363 0 0 Z " fill="#010301" transform="translate(283.959228515625,501.886474609375)"/>
<path d="M0 0 C10.23 0 20.46 0 31 0 C31.495 3.465 31.495 3.465 32 7 C32.495 7.495 32.495 7.495 33 8 C33.09622036 9.70825688 33.12187628 11.42052114 33.12025452 13.13148499 C33.12162918 14.24352798 33.12300385 15.35557098 33.12442017 16.50131226 C33.11902725 18.34736557 33.11902725 18.34736557 33.11352539 20.23071289 C33.11367142 21.51833023 33.11381744 22.80594757 33.1139679 24.13258362 C33.11425586 27.6737476 33.10835936 31.21487799 33.10139394 34.75603414 C33.09516017 38.45294988 33.09455658 42.14986631 33.09336853 45.8467865 C33.09025528 52.85203899 33.08204199 59.85727595 33.07201904 66.86252159 C33.0608577 74.83578876 33.0553474 82.80905665 33.05032361 90.78232968 C33.03985937 107.18822889 33.02226005 123.59411247 33 140 C28.49764405 140.02472359 23.99532764 140.04287119 19.49291992 140.05493164 C17.9613374 140.0599596 16.42975967 140.06678284 14.89819336 140.07543945 C12.69643978 140.08757229 10.49474967 140.09324367 8.29296875 140.09765625 C7.60849167 140.10281754 6.92401459 140.10797882 6.21879578 140.11329651 C3.19093758 140.1136536 0.89849858 139.96616619 -2 139 C-2.0467743 122.05789663 -2.08201543 105.11581349 -2.10362434 88.17366028 C-2.11392557 80.3066695 -2.12796381 72.43971889 -2.15087891 64.57275391 C-2.17084815 57.71384402 -2.18372482 50.85496324 -2.18817699 43.99602509 C-2.19077839 40.36614884 -2.19686868 36.73635585 -2.21146011 33.10650635 C-2.22763819 29.04883165 -2.22797742 24.99130062 -2.22705078 20.93359375 C-2.23424133 19.73740921 -2.24143188 18.54122467 -2.24884033 17.30879211 C-2.246091 16.19554062 -2.24334167 15.08228912 -2.24050903 13.93530273 C-2.24235262 12.97663803 -2.24419621 12.01797333 -2.24609566 11.03025818 C-2 8 -2 8 0 0 Z " fill="#020402" transform="translate(205,503)"/>
<path d="M0 0 C1.084021 0.00523682 2.16804199 0.01047363 3.28491211 0.01586914 C5.03964844 0.02070313 5.03964844 0.02070313 6.82983398 0.02563477 C8.67738281 0.03820312 8.67738281 0.03820312 10.56225586 0.05102539 C12.41560547 0.05779297 12.41560547 0.05779297 14.30639648 0.06469727 C17.37089703 0.07652931 20.43530307 0.09301366 23.49975586 0.11352539 C27.35633202 7.88657594 28.06773962 14.5518003 27.9855957 23.15063477 C27.9893924 24.41684662 27.99318909 25.68305847 27.99710083 26.98764038 C28.00671304 30.42941822 27.9916 33.87066948 27.97119474 37.31238365 C27.95351772 40.92288913 27.9571507 44.53338096 27.95791626 48.1439209 C27.95604978 54.19605235 27.93876434 60.24798185 27.91137695 66.30004883 C27.87981923 73.2996238 27.869385 80.29897879 27.87084806 87.29861975 C27.8721971 94.7606763 27.85833856 102.22264804 27.83995485 109.68467903 C27.83569019 111.83387193 27.8342723 113.98305118 27.83347702 116.13224792 C27.83110098 120.12543558 27.81170383 124.11843914 27.7902832 128.11157227 C27.79164276 129.90061478 27.79164276 129.90061478 27.79302979 131.72579956 C27.78449982 132.80793732 27.77596985 133.89007507 27.7671814 135.00500488 C27.76382971 135.94883781 27.76047802 136.89267075 27.75702477 137.86510468 C27.49975586 140.11352539 27.49975586 140.11352539 25.49975586 142.11352539 C23.06230689 142.28840794 20.74039506 142.34529944 18.30444336 142.30883789 C17.59699982 142.306008 16.88955627 142.3031781 16.16067505 142.30026245 C13.89853076 142.28905676 11.63678071 142.26395218 9.37475586 142.23852539 C7.84220949 142.22849606 6.30965692 142.21937013 4.77709961 142.21118164 C1.01783285 142.18911626 -2.74113878 142.15458435 -6.50024414 142.11352539 C-6.57045635 125.20597588 -6.62329196 108.29847215 -6.65568066 91.39081001 C-6.67112183 83.53954304 -6.69215848 75.68836688 -6.7265625 67.8371582 C-6.75654937 60.99068064 -6.77583911 54.14426888 -6.78250962 47.29772747 C-6.78640623 43.67556602 -6.79550574 40.05359274 -6.81743431 36.43149185 C-6.84176764 32.37896781 -6.8422082 28.32676687 -6.84082031 24.27416992 C-6.85160614 23.08517593 -6.86239197 21.89618195 -6.87350464 20.67115784 C-6.79825853 0.30867984 -6.79825853 0.30867984 0 0 Z " fill="#040705" transform="translate(632.500244140625,501.886474609375)"/>
<path d="M0 0 C14.19 0 28.38 0 43 0 C43 46.53 43 93.06 43 141 C28.15 141 13.3 141 -2 141 C-2.04519025 123.7971165 -2.08201443 106.59428385 -2.10362434 89.39135742 C-2.113926 81.40329866 -2.12796506 73.41527946 -2.15087891 65.42724609 C-2.17084683 58.46286078 -2.18372451 51.49850414 -2.18817699 44.534091 C-2.19077862 40.84832395 -2.19687033 37.1626389 -2.21146011 33.47689819 C-2.22763555 29.35695802 -2.2279775 25.23715935 -2.22705078 21.1171875 C-2.23424133 19.90230148 -2.24143188 18.68741547 -2.24884033 17.43571472 C-2.246091 16.30563492 -2.24334167 15.17555511 -2.24050903 14.01123047 C-2.24235262 13.03781708 -2.24419621 12.06440369 -2.24609566 11.06149292 C-2 8 -2 8 0 0 Z M1 1 C0.67 3.97 0.34 6.94 0 10 C-0.33 10.33 -0.66 10.66 -1 11 C-1.09614133 12.67024669 -1.12187722 14.34458276 -1.12025452 16.01759338 C-1.12162918 17.10439392 -1.12300385 18.19119446 -1.12442017 19.31092834 C-1.12082489 20.51357834 -1.11722961 21.71622833 -1.11352539 22.95532227 C-1.11367142 24.21367889 -1.11381744 25.47203552 -1.1139679 26.76852417 C-1.11425585 30.22911253 -1.10835949 33.68966652 -1.10139394 37.15024686 C-1.09516003 40.76308091 -1.09455657 44.37591567 -1.09336853 47.98875427 C-1.09025532 54.83463508 -1.08204208 61.6805 -1.07201904 68.5263738 C-1.06085757 76.31826589 -1.05534737 84.11015873 -1.05032361 91.90205681 C-1.03985946 107.93471532 -1.02151411 123.96735193 -1 140 C13.19 140 27.38 140 42 140 C42 94.13 42 48.26 42 1 C28.47 1 14.94 1 1 1 Z " fill="#091C0E" transform="translate(364,503)"/>
<path d="M0 0 C0.33 0 0.66 0 1 0 C0.67 46.2 0.34 92.4 0 140 C12.21 140 24.42 140 37 140 C37 96.77 37 53.54 37 9 C37.33 9 37.66 9 38 9 C38 52.56 38 96.12 38 141 C25.13 141 12.26 141 -1 141 C-1.17567065 123.20657688 -1.34293585 105.41314263 -1.49477577 87.61950302 C-1.56554717 79.35776454 -1.64012346 71.09609301 -1.72363281 62.83447266 C-1.79640304 55.63432659 -1.86205903 48.43415698 -1.91914403 41.23386884 C-1.94962418 37.42075923 -1.98368553 33.60775695 -2.02626419 29.79476166 C-2.06622263 26.20635105 -2.09667296 22.61798574 -2.11981392 19.02942848 C-2.13484272 17.08351405 -2.15996898 15.13768583 -2.18537903 13.19187927 C-2.19387627 11.45452263 -2.19387627 11.45452263 -2.20254517 9.68206787 C-2.2117631 8.67546993 -2.22098103 7.66887199 -2.23047829 6.63177109 C-1.99406595 3.93224059 -1.38347545 2.30481513 0 0 Z " fill="#344E3A" transform="translate(549,503)"/>
<path d="M0 0 C32.01 0 64.02 0 97 0 C97.495 1.485 97.495 1.485 98 3 C94.83692644 4.05435785 92.93219848 4.02800503 89.6328125 3.84375 C88.58222656 3.79089844 87.53164063 3.73804688 86.44921875 3.68359375 C84.24086162 3.56162808 82.03252803 3.43923529 79.82421875 3.31640625 C78.77105469 3.26355469 77.71789062 3.21070313 76.6328125 3.15625 C75.67262207 3.10275391 74.71243164 3.04925781 73.72314453 2.99414062 C71.00325935 2.99999299 68.64910481 3.42283333 66 4 C63.6484375 3.84375 63.6484375 3.84375 61.375 3.5 C58.26956648 3.03365504 57.07513801 2.974954 54 4 C50.29110602 3.64107478 46.80318627 3.19633442 43.1875 2.3125 C40.71154585 1.7107287 40.71154585 1.7107287 38 4 C35.84375 4.23046875 35.84375 4.23046875 33.5 4.1875 C32.7265625 4.18105469 31.953125 4.17460937 31.15625 4.16796875 C28.25830531 3.94222306 25.75075121 2.91691707 23 2 C22.4225 2.144375 21.845 2.28875 21.25 2.4375 C18.15878082 3.2103048 15.17927298 3 12 3 C10.7315625 3.309375 10.7315625 3.309375 9.4375 3.625 C6.15101099 4.13061369 4.01837997 3.30339135 1 2 C0.67 1.34 0.34 0.68 0 0 Z " fill="#8BC59F" transform="translate(495,420)"/>
<path d="M0 0 C2.97 0 5.94 0 9 0 C9.02465746 4.1117256 9.04283959 8.22342278 9.05493164 12.33520508 C9.0599708 13.73495228 9.06680216 15.1346942 9.07543945 16.53442383 C9.0875232 18.54245777 9.09269807 20.55052957 9.09765625 22.55859375 C9.10289307 23.76829834 9.10812988 24.97800293 9.11352539 26.22436523 C9 29 9 29 8 30 C5.36 30 2.72 30 0 30 C0 20.1 0 10.2 0 0 Z " fill="#0C180F" transform="translate(414,230)"/>
<path d="M0 0 C0.66 0.33 1.32 0.66 2 1 C2.33 43.57 2.66 86.14 3 130 C1.35 130.33 -0.3 130.66 -2 131 C-1.505 130.01 -1.505 130.01 -1 129 C-0.89510182 127.28978619 -0.853426 125.57554035 -0.84178162 123.8621521 C-0.8319928 122.7739769 -0.82220398 121.6858017 -0.81211853 120.56465149 C-0.80636307 119.36559677 -0.8006076 118.16654205 -0.79467773 116.93115234 C-0.78477814 115.67264969 -0.77487854 114.41414703 -0.76467896 113.11750793 C-0.73760233 109.66114546 -0.71660774 106.20476928 -0.69667697 102.7483592 C-0.67483439 99.13817304 -0.64743727 95.52802922 -0.62062073 91.9178772 C-0.57067042 85.07914366 -0.52574029 78.24038666 -0.48259836 71.40160716 C-0.43324594 63.61691678 -0.37832043 55.83226889 -0.32291877 48.04761958 C-0.20906284 32.03178553 -0.10223169 16.01591256 0 0 Z " fill="#688E73" transform="translate(160,512)"/>
<path d="M0 0 C2.64 0 5.28 0 8 0 C8 9.9 8 19.8 8 30 C5.36 29.67 2.72 29.34 0 29 C0 19.43 0 9.86 0 0 Z " fill="#050E07" transform="translate(442,230)"/>
<path d="M0 0 C0.33 0 0.66 0 1 0 C1.38133299 1.9914056 1.71325582 3.99279077 2 6 C1.67 6.33 1.34 6.66 1 7 C0.89168184 8.66985299 0.85314269 10.34426952 0.84178162 12.01759338 C0.8319928 13.10439392 0.82220398 14.19119446 0.81211853 15.31092834 C0.80636307 16.51357834 0.8006076 17.71622833 0.79467773 18.95532227 C0.78477814 20.21367889 0.77487854 21.47203552 0.76467896 22.76852417 C0.73756724 26.22907786 0.71659174 29.68964527 0.69667697 33.15024686 C0.67485593 36.76310831 0.64744831 40.37592715 0.62062073 43.98875427 C0.57064118 50.83460417 0.52572195 57.68047766 0.48259836 64.5263738 C0.43327086 72.31829615 0.37833614 80.11017577 0.32291877 87.90205681 C0.20901797 103.93466662 0.10293699 119.96731548 0 136 C14.52 136 29.04 136 44 136 C44 136.33 44 136.66 44 137 C29.15 137 14.3 137 -1 137 C-1.02256729 119.7280356 -1.04099103 102.45608378 -1.05181217 85.18410873 C-1.05697 77.16456322 -1.06400295 69.14502751 -1.07543945 61.12548828 C-1.08540193 54.13623779 -1.09185717 47.14699441 -1.09408849 40.15773702 C-1.09539293 36.45647506 -1.098462 32.75523342 -1.10573006 29.05397797 C-1.11377496 24.92367143 -1.11399012 20.79340028 -1.11352539 16.66308594 C-1.11712067 15.43381882 -1.12071594 14.2045517 -1.12442017 12.93803406 C-1.1230455 11.81345291 -1.12167084 10.68887177 -1.12025452 9.5302124 C-1.12117631 8.55311184 -1.1220981 7.57601128 -1.12304783 6.56930161 C-1.01080195 4.2255502 -0.66722792 2.24136443 0 0 Z " fill="#283F2D" transform="translate(363,507)"/>
<path d="M0 0 C0.33 0 0.66 0 1 0 C0.67 46.53 0.34 93.06 0 141 C-0.33 141 -0.66 141 -1 141 C-1.17726459 123.2066021 -1.34293591 105.41313594 -1.49477577 87.61950302 C-1.56554717 79.35776454 -1.64012346 71.09609301 -1.72363281 62.83447266 C-1.79640304 55.63432659 -1.86205903 48.43415698 -1.91914403 41.23386884 C-1.94962418 37.42075923 -1.98368553 33.60775695 -2.02626419 29.79476166 C-2.06622263 26.20635105 -2.09667296 22.61798574 -2.11981392 19.02942848 C-2.13484272 17.08351405 -2.15996898 15.13768583 -2.18537903 13.19187927 C-2.19387627 11.45452263 -2.19387627 11.45452263 -2.20254517 9.68206787 C-2.2117631 8.67546993 -2.22098103 7.66887199 -2.23047829 6.63177109 C-1.99406595 3.93224059 -1.38347545 2.30481513 0 0 Z " fill="#5C7964" transform="translate(549,503)"/>
<path d="M0 0 C0.33 0 0.66 0 1 0 C0.7834375 1.423125 0.7834375 1.423125 0.5625 2.875 C-0.63457672 11.36807097 -1.15606564 19.74952962 -1.20532227 28.32470703 C-1.21522186 29.40881363 -1.22512146 30.49292023 -1.23532104 31.60987854 C-1.26666756 35.15916837 -1.29158627 38.70847155 -1.31640625 42.2578125 C-1.33699902 44.73217091 -1.35799607 47.20652598 -1.37937927 49.68087769 C-1.43436017 56.16790045 -1.48387445 62.6549537 -1.53222656 69.14202881 C-1.58261755 75.77179669 -1.63821143 82.40152011 -1.69335938 89.03125 C-1.80064727 102.02079559 -1.9023334 115.01037869 -2 128 C-2.33 128 -2.66 128 -3 128 C-3.07020976 112.63980226 -3.12304666 97.27961194 -3.15543652 81.91928959 C-3.17087821 74.78655177 -3.1919158 67.65391389 -3.22631836 60.52124023 C-3.2563037 54.30139882 -3.2755946 48.08162981 -3.28226548 41.86171812 C-3.28616238 38.57100419 -3.29685881 35.28054461 -3.31719017 31.98988533 C-3.33902814 28.3083185 -3.34196417 24.62717802 -3.34057617 20.94555664 C-3.351362 19.86517624 -3.36214783 18.78479584 -3.3732605 17.67167664 C-3.34709021 11.23915438 -2.47614199 5.95244563 0 0 Z " fill="#8CC39F" transform="translate(627,506)"/>
<path d="M0 0 C1.29349365 0.00523682 2.5869873 0.01047363 3.91967773 0.01586914 C4.9496714 0.01799156 4.9496714 0.01799156 6.00047302 0.02015686 C8.20144949 0.0257706 10.40232557 0.03832532 12.60327148 0.05102539 C14.09220231 0.05603863 15.58113473 0.06060184 17.07006836 0.06469727 C20.72700223 0.07574446 24.38387707 0.09301826 28.04077148 0.11352539 C27.71077148 1.10352539 27.38077148 2.09352539 27.04077148 3.11352539 C17.47077148 2.78352539 7.90077148 2.45352539 -1.95922852 2.11352539 C-2.28922852 4.42352539 -2.61922852 6.73352539 -2.95922852 9.11352539 C-3.28922852 9.11352539 -3.61922852 9.11352539 -3.95922852 9.11352539 C-4.05688477 2.96118164 -4.05688477 2.96118164 -3.95922852 1.11352539 C-2.95922852 0.11352539 -2.95922852 0.11352539 0 0 Z " fill="#29412D" transform="translate(283.959228515625,501.886474609375)"/>
<path d="M0 0 C1.25586914 0.0009668 1.25586914 0.0009668 2.53710938 0.00195312 C6.62636552 0.03109272 10.45002949 0.16820795 14.4375 1.1875 C11.03886617 3.23098237 8.29329897 3.48585885 4.359375 3.6015625 C3.19921875 3.64023437 2.0390625 3.67890625 0.84375 3.71875 C-0.96609375 3.76515625 -0.96609375 3.76515625 -2.8125 3.8125 C-4.03453125 3.85117187 -5.2565625 3.88984375 -6.515625 3.9296875 C-9.5310994 4.02392108 -12.54656828 4.10953455 -15.5625 4.1875 C-15.5625 3.5275 -15.5625 2.8675 -15.5625 2.1875 C-10.26977852 0.01016905 -5.61832072 -0.08255846 0 0 Z " fill="#8BBE9A" transform="translate(295.5625,498.8125)"/>
<path d="M0 0 C1.01513672 -0.020625 2.03027344 -0.04125 3.07617188 -0.0625 C4.53700195 -0.07023437 4.53700195 -0.07023437 6.02734375 -0.078125 C6.9205835 -0.0874707 7.81382324 -0.09681641 8.73413086 -0.10644531 C11.0625 0.25 11.0625 0.25 14.0625 3.25 C5.1525 3.25 -3.7575 3.25 -12.9375 3.25 C-12.9375 2.59 -12.9375 1.93 -12.9375 1.25 C-9.05869395 -0.68940303 -4.26635864 0.02158815 0 0 Z " fill="#90C49F" transform="translate(220.9375,498.75)"/>
<path d="M0 0 C0 0.33 0 0.66 0 1 C-10.01292948 2.09945892 -19.94401799 2.10055982 -30 2 C-27.01320377 -1.4845956 -24.68243176 -1.67263921 -20.25 -2.015625 C-13.45341607 -1.98294912 -6.72078664 -0.94340508 0 0 Z " fill="#90C6A0" transform="translate(580,500)"/>
<path d="M0 0 C0.33 0 0.66 0 1 0 C1 9.57 1 19.14 1 29 C3.64 29.33 6.28 29.66 9 30 C9 30.33 9 30.66 9 31 C5.7 30.67 2.4 30.34 -1 30 C-1.88747193 26.45011229 -2.10545467 23.85819222 -2.0625 20.25 C-2.05347656 19.26515625 -2.04445313 18.2803125 -2.03515625 17.265625 C-2.02355469 16.51796875 -2.01195312 15.7703125 -2 15 C-1.34 15 -0.68 15 0 15 C0 10.05 0 5.1 0 0 Z " fill="#6A9577" transform="translate(441,230)"/>
<path d="M0 0 C1.26582219 3.86723631 1.1118765 7.73151262 1.0625 11.75 C1.05798828 12.44738281 1.05347656 13.14476562 1.04882812 13.86328125 C1.0371002 15.57555803 1.01916653 17.28779033 1 19 C0.34 18.34 -0.32 17.68 -1 17 C-2.485 22.94 -2.485 22.94 -4 29 C-4.33 29 -4.66 29 -5 29 C-5.21586249 22.90710708 -4.47882045 17.60272069 -3.0625 11.6875 C-2.78889648 10.49157227 -2.78889648 10.49157227 -2.50976562 9.27148438 C-1.78119354 6.12140361 -1.02339119 3.07017356 0 0 Z " fill="#6C9678" transform="translate(297,362)"/>
<path d="M0 0 C0.33 0 0.66 0 1 0 C1.16831775 2.41656194 1.33471262 4.83323049 1.5 7.25 C1.54769531 7.93191406 1.59539062 8.61382812 1.64453125 9.31640625 C1.86478719 12.55731503 2 15.7493366 2 19 C0.5625 20.5625 0.5625 20.5625 -1 22 C-1.33 22.99 -1.66 23.98 -2 25 C-3.65 25 -5.3 25 -7 25 C-7 24.34 -7 23.68 -7 23 C-7.66 22.67 -8.32 22.34 -9 22 C-2.25 18 -2.25 18 0 18 C0 12.06 0 6.12 0 0 Z " fill="#709A7C" transform="translate(423,186)"/>
<path d="M0 0 C-1.15234375 1.484375 -1.15234375 1.484375 -3 3 C-5.62890625 3.328125 -5.62890625 3.328125 -8.5625 3.25 C-10.01849609 3.22679687 -10.01849609 3.22679687 -11.50390625 3.203125 C-14 3 -14 3 -16 2 C-17.32 2 -18.64 2 -20 2 C-20 1.34 -20 0.68 -20 0 C-13.09811029 -0.83854735 -6.88577812 -1.01593448 0 0 Z " fill="#7CBA93" transform="translate(617,472)"/>
<path d="M0 0 C0 0.66 0 1.32 0 2 C0.99 2.33 1.98 2.66 3 3 C-4.59 3 -12.18 3 -20 3 C-20 2.34 -20 1.68 -20 1 C-13.31184516 0.37577221 -6.71884955 -0.12920865 0 0 Z " fill="#8FC39E" transform="translate(154,499)"/>
<path d="M0 0 C0.33 0 0.66 0 1 0 C1 5.28 1 10.56 1 16 C-0.32 16 -1.64 16 -3 16 C-3.37851209 10.06997733 -2.10575375 5.52760359 0 0 Z " fill="#8DC39E" transform="translate(439,186)"/>
<path d="M0 0 C5.28 0 10.56 0 16 0 C15.67 1.32 15.34 2.64 15 4 C10.71 4 6.42 4 2 4 C2 3.01 2 2.02 2 1 C1.34 0.67 0.68 0.34 0 0 Z " fill="#91C8A2" transform="translate(267,420)"/>
<path d="M0 0 C0.33 0 0.66 0 1 0 C1.22655901 3.08227709 1.42803465 6.1657016 1.625 9.25 C1.68945312 10.12269531 1.75390625 10.99539063 1.8203125 11.89453125 C1.871875 12.73886719 1.9234375 13.58320312 1.9765625 14.453125 C2.02893066 15.22817383 2.08129883 16.00322266 2.13525391 16.80175781 C1.9810467 19.30804237 1.25581508 20.84839873 0 23 C-0.33 23 -0.66 23 -1 23 C-1.02887512 19.35418313 -1.04675585 15.70839537 -1.0625 12.0625 C-1.07087891 11.02158203 -1.07925781 9.98066406 -1.08789062 8.90820312 C-1.09272461 7.42416992 -1.09272461 7.42416992 -1.09765625 5.91015625 C-1.10289307 4.99371338 -1.10812988 4.07727051 -1.11352539 3.13305664 C-1 1 -1 1 0 0 Z " fill="#90C5A1" transform="translate(662,519)"/>
<path d="M0 0 C6.27 0.33 12.54 0.66 19 1 C19 1.66 19 2.32 19 3 C12.73 3 6.46 3 0 3 C0 2.01 0 1.02 0 0 Z " fill="#92C6A1" transform="translate(707,499)"/>
<path d="M0 0 C2.70454841 4.05682262 2.42076588 7.24210884 2 12 C1 15.5625 1 15.5625 0 18 C-0.33 18 -0.66 18 -1 18 C-1.02684312 15.18743719 -1.04676188 12.37512759 -1.0625 9.5625 C-1.07087891 8.76005859 -1.07925781 7.95761719 -1.08789062 7.13085938 C-1.0965143 5.08704779 -1.0522815 3.04316098 -1 1 C-0.67 0.67 -0.34 0.34 0 0 Z " fill="#83B593" transform="translate(425,183)"/>
<path d="M0 0 C0.33 0 0.66 0 1 0 C0.67 9.57 0.34 19.14 0 29 C-0.33 29 -0.66 29 -1 29 C-1.22601462 24.91744345 -1.42774673 20.83403925 -1.625 16.75 C-1.68945312 15.59113281 -1.75390625 14.43226563 -1.8203125 13.23828125 C-1.89765625 11.56572266 -1.89765625 11.56572266 -1.9765625 9.859375 C-2.02893066 8.83295898 -2.08129883 7.80654297 -2.13525391 6.74902344 C-1.99657225 3.93033131 -1.45992606 2.38172237 0 0 Z " fill="#65876E" transform="translate(549,503)"/>
<path d="M0 0 C6.27 0 12.54 0 19 0 C18.67 0.66 18.34 1.32 18 2 C14.52674819 3.1577506 11.63932552 3.06866652 8 3 C8 2.67 8 2.34 8 2 C5.36 1.67 2.72 1.34 0 1 C0 0.67 0 0.34 0 0 Z " fill="#8CC39E" transform="translate(407,420)"/>
<path d="M0 0 C1.65 0 3.3 0 5 0 C4.67 1.65 4.34 3.3 4 5 C4.99 5 5.98 5 7 5 C7 5.66 7 6.32 7 7 C4.625 7.125 4.625 7.125 2 7 C0 5 0 5 -0.125 2.375 C-0.08375 1.59125 -0.0425 0.8075 0 0 Z " fill="#8BB89A" transform="translate(396,223)"/>
<path d="M0 0 C0.33 0 0.66 0 1 0 C1.144375 0.763125 1.28875 1.52625 1.4375 2.3125 C1.9632594 5.08172908 1.9632594 5.08172908 3 8 C3.03954234 10.33299825 3.04401732 12.66708189 3 15 C2.34 15 1.68 15 1 15 C-0.44207941 12.11584117 -0.09394887 9.58278472 -0.0625 6.375 C-0.05347656 5.18648438 -0.04445313 3.99796875 -0.03515625 2.7734375 C-0.02355469 1.85820312 -0.01195313 0.94296875 0 0 Z " fill="#729A7E" transform="translate(125,479)"/>
<path d="M0 0 C0.33 0.66 0.66 1.32 1 2 C-0.07507629 3.29854721 -1.16043736 4.58858361 -2.25 5.875 C-2.85328125 6.59429687 -3.4565625 7.31359375 -4.078125 8.0546875 C-5.97087634 9.97052118 -7.53657727 10.96449045 -10 12 C-7.49653351 7.14032976 -3.91447559 3.72143296 0 0 Z " fill="#749D7F" transform="translate(335,300)"/>
<path d="M0 0 C4.16138263 -0.08159574 7.9472484 0.01751476 12 1 C8.09971775 3.60018816 4.52565431 3.15085514 0 3 C0 2.01 0 1.02 0 0 Z " fill="#92C7A0" transform="translate(298,499)"/>
<path d="M0 0 C0.33 0 0.66 0 1 0 C1 4.29 1 8.58 1 13 C-1.31 13 -3.62 13 -6 13 C-4.71034824 11.62437146 -3.37310707 10.29233607 -2 9 C-1.34 9 -0.68 9 0 9 C0 6.03 0 3.06 0 0 Z " fill="#7BA389" transform="translate(572,386)"/>
<path d="M0 0 C0.99 0.33 1.98 0.66 3 1 C2.375 2.875 2.375 2.875 1 5 C-2.125 6.25 -2.125 6.25 -5 7 C-3.70700306 4.11562221 -2.34058637 2.12780579 0 0 Z " fill="#79A386" transform="translate(251,420)"/>
<path d="M0 0 C1.25384913 3.76154738 0.64954477 6.10273139 0 10 C-0.185625 11.299375 -0.37125 12.59875 -0.5625 13.9375 C-0.706875 14.948125 -0.85125 15.95875 -1 17 C-2.81426728 13.92970153 -3.20901169 12.02714249 -2.75 8.5 C-2.66234375 7.7471875 -2.5746875 6.994375 -2.484375 6.21875 C-1.97595134 3.8898416 -1.15218067 2.07770284 0 0 Z " fill="#92C6A3" transform="translate(300,358)"/>
<path d="M0 0 C0.66 0.33 1.32 0.66 2 1 C1.34 2.32 0.68 3.64 0 5 C-4 5 -4 5 -6 4 C-4.02 2.68 -2.04 1.36 0 0 Z " fill="#72A07E" transform="translate(362,279)"/>
<path d="M0 0 C0.66 0.33 1.32 0.66 2 1 C1.74438677 3.3431213 1.40729228 5.67843403 1 8 C0.01 8.495 0.01 8.495 -1 9 C-1.66 7.02 -2.32 5.04 -3 3 C-2.01 2.01 -1.02 1.02 0 0 Z " fill="#8DC79F" transform="translate(428,182)"/>
<path d="M0 0 C0.66 0.99 1.32 1.98 2 3 C-3.75 8 -3.75 8 -6 8 C-5.67 7.01 -5.34 6.02 -5 5 C-4.01 5 -3.02 5 -2 5 C-1.34 3.35 -0.68 1.7 0 0 Z " fill="#87B395" transform="translate(735,666)"/>
<path d="M0 0 C0.66 0.33 1.32 0.66 2 1 C0.77065985 4.68802044 -0.93859378 5.72356973 -4 8 C-4.33 7.34 -4.66 6.68 -5 6 C-3.35 4.02 -1.7 2.04 0 0 Z " fill="#759B7F" transform="translate(131,645)"/>
<path d="M0 0 C0.33 0 0.66 0 1 0 C1 3.96 1 7.92 1 12 C0.01 12.495 0.01 12.495 -1 13 C-2.12758089 9.61725734 -1.81750262 8.23221777 -1.0625 4.8125 C-0.86785156 3.91144531 -0.67320312 3.01039063 -0.47265625 2.08203125 C-0.23869141 1.05142578 -0.23869141 1.05142578 0 0 Z " fill="#92BF9F" transform="translate(737,655)"/>
<path d="M0 0 C2.64 0 5.28 0 8 0 C7.01 1.485 7.01 1.485 6 3 C2.875 3.1875 2.875 3.1875 0 3 C0 2.01 0 1.02 0 0 Z " fill="#8CC5A0" transform="translate(434,420)"/>
<path d="M0 0 C0.6875 1.625 0.6875 1.625 1 4 C-0.4375 7.25 -0.4375 7.25 -2 10 C-2.66 10 -3.32 10 -4 10 C-2.8905928 6.51329166 -1.73662334 3.22515763 0 0 Z " fill="#6B8F75" transform="translate(309,333)"/>
<path d="M0 0 C2.66735273 2.48952921 4.55746343 4.63408134 6 8 C4.68 7.67 3.36 7.34 2 7 C2 6.01 2 5.02 2 4 C1.01 4 0.02 4 -1 4 C-0.67 2.68 -0.34 1.36 0 0 Z " fill="#7EAB8C" transform="translate(544,317)"/>
<path d="M0 0 C0 1.65 0 3.3 0 5 C-1.98 5 -3.96 5 -6 5 C-5.1875 3.0625 -5.1875 3.0625 -4 1 C-1 0 -1 0 0 0 Z " fill="#92C1A1" transform="translate(468,224)"/>
<path d="M0 0 C0.99 0.33 1.98 0.66 3 1 C2.67 3.64 2.34 6.28 2 9 C1.34 8.67 0.68 8.34 0 8 C0 5.36 0 2.72 0 0 Z " fill="#6C9477" transform="translate(312,502)"/>
<path d="M0 0 C0.66 0 1.32 0 2 0 C0.52307692 4.67692308 0.52307692 4.67692308 -2.125 6.3125 C-3.053125 6.6528125 -3.053125 6.6528125 -4 7 C-2.92598892 4.08482708 -2.22189824 2.22189824 0 0 Z " fill="#71937B" transform="translate(130,472)"/>
<path d="M0 0 C-7.5 5 -7.5 5 -10 5 C-9 2 -9 2 -7.25 0.8125 C-4.70039426 -0.10819096 -2.69076919 -0.14948718 0 0 Z " fill="#85BA93" transform="translate(400,265)"/>
<path d="M0 0 C0.66 0.33 1.32 0.66 2 1 C0.25 4.875 0.25 4.875 -2 6 C-2.99 5.34 -3.98 4.68 -5 4 C-3.35 3.67 -1.7 3.34 0 3 C0 2.01 0 1.02 0 0 Z " fill="#77A884" transform="translate(424,201)"/>
</svg>
